<svg xmlns="http://www.w3.org/2000/svg" width="1440" height="1000" viewBox="0 0 1440 1000" role="img" aria-labelledby="title desc"><title id="title">SpotPatch island-shell-3d design study</title><desc id="desc">Product design illustration based on SpotPatch features. Not a runtime screenshot.</desc><defs><linearGradient id="bg" x2="1" y2="1"><stop stop-color="#151723"/><stop offset="1" stop-color="#080a11"/></linearGradient><linearGradient id="glass" x2=".4" y2="1"><stop stop-color="#292b3b"/><stop offset="1" stop-color="#10131d"/></linearGradient><linearGradient id="violet"><stop stop-color="#8253f4"/><stop offset="1" stop-color="#6240df"/></linearGradient><linearGradient id="rim"><stop stop-color="#c1abff"/><stop offset=".5" stop-color="#4f4372"/><stop offset="1" stop-color="#7caec6"/></linearGradient><linearGradient id="slab" x2=".7" y2="1"><stop stop-color="#393947"/><stop offset="1" stop-color="#171924"/></linearGradient><filter id="shadow" x="-60%" y="-60%" width="220%" height="240%"><feDropShadow dx="0" dy="22" stdDeviation="26" flood-color="#000" flood-opacity=".3"/></filter></defs><g font-family="Inter,-apple-system,BlinkMacSystemFont,Segoe UI,PingFang SC,Microsoft YaHei,sans-serif"><rect x="0" y="0" width="1440" height="1000" rx="0" fill="url(#bg)" stroke="none"/><g transform="translate(64 42)"><svg
  xmlns="http://www.w3.org/2000/svg"
  width="40"
  height="40"
  viewBox="0 0 512 512"
  fill="none"
  role="img"
  aria-labelledby="spotpatch-title spotpatch-description"
>
  <title id="spotpatch-title">SpotPatch logo mark</title>
  <desc id="spotpatch-description">
    A gradient source-code locator containing angle brackets and a lightning bolt.
  </desc>

  <defs>
    <linearGradient id="locator-gradient" x1="76" y1="92" x2="436" y2="374" gradientUnits="userSpaceOnUse">
      <stop offset="0" stop-color="#B61CFF" />
      <stop offset="0.38" stop-color="#6D35FF" />
      <stop offset="0.72" stop-color="#168EFF" />
      <stop offset="1" stop-color="#00D9E9" />
    </linearGradient>

    <linearGradient id="left-code-gradient" x1="165" y1="166" x2="236" y2="258" gradientUnits="userSpaceOnUse">
      <stop stop-color="#A51EFF" />
      <stop offset="1" stop-color="#653BFF" />
    </linearGradient>

    <linearGradient id="right-code-gradient" x1="276" y1="166" x2="347" y2="258" gradientUnits="userSpaceOnUse">
      <stop stop-color="#158DFF" />
      <stop offset="1" stop-color="#00D8E9" />
    </linearGradient>

    <linearGradient id="bolt-gradient" x1="270" y1="111" x2="252" y2="365" gradientUnits="userSpaceOnUse">
      <stop stop-color="#6840FF" />
      <stop offset="0.48" stop-color="#257BFF" />
      <stop offset="1" stop-color="#00CBEF" />
    </linearGradient>
  </defs>

  <!-- Locator body. The inner path is subtracted to keep the logo transparent. -->
  <path
    fill="url(#locator-gradient)"
    fill-rule="evenodd"
    clip-rule="evenodd"
    d="M256 52C345.47 52 418 124.53 418 214C418 267.55 391.98 316.24 354.04 348.02L256 468L157.96 348.02C120.02 316.24 94 267.55 94 214C94 124.53 166.53 52 256 52ZM256 88C186.41 88 130 144.41 130 214C130 258.2 152.76 297.08 187.2 319.57L256 403.8L324.8 319.57C359.24 297.08 382 258.2 382 214C382 144.41 325.59 88 256 88Z"
  />

  <!-- Cardinal locator ticks. -->
  <rect x="238" y="20" width="36" height="84" rx="4" fill="url(#locator-gradient)" />
  <rect x="62" y="196" width="84" height="36" rx="4" fill="url(#locator-gradient)" />
  <rect x="366" y="196" width="84" height="36" rx="4" fill="url(#locator-gradient)" />

  <!-- Source-code angle brackets. -->
  <path
    d="M213.5 160L158 211.5L213.5 263L238 236.5L211 211.5L238 186.5L213.5 160Z"
    fill="url(#left-code-gradient)"
  />
  <path
    d="M298.5 160L354 211.5L298.5 263L274 236.5L301 211.5L274 186.5L298.5 160Z"
    fill="url(#right-code-gradient)"
  />

  <!-- Central patch/lightning seam. -->
  <path
    d="M283 108L232 212L266 253L238 369L302 237L267 198L283 108Z"
    fill="url(#bolt-gradient)"
  />
</svg>
</g><text x="116" y="70" font-size="25" font-weight="650" fill="#edf0fa">SpotPatch</text><text x="64" y="161" font-size="38" font-weight="650" fill="#edf0fa">One persistent shell beneath the island.</text><text x="64" y="207" font-size="19" font-weight="400" fill="#9ea7bd">View structure / Position control and business state keep separate responsibilities.</text><g transform="translate(150 340) skewY(-7)"><g filter="url(#shadow)"><rect x="0" y="0" width="610" height="109" rx="40" fill="url(#slab)" stroke="url(#rim)"/></g><g transform="translate(26 28)"><svg
  xmlns="http://www.w3.org/2000/svg"
  width="40"
  height="40"
  viewBox="0 0 512 512"
  fill="none"
  role="img"
  aria-labelledby="spotpatch-title spotpatch-description"
>
  <title id="spotpatch-title">SpotPatch logo mark</title>
  <desc id="spotpatch-description">
    A gradient source-code locator containing angle brackets and a lightning bolt.
  </desc>

  <defs>
    <linearGradient id="locator-gradient" x1="76" y1="92" x2="436" y2="374" gradientUnits="userSpaceOnUse">
      <stop offset="0" stop-color="#B61CFF" />
      <stop offset="0.38" stop-color="#6D35FF" />
      <stop offset="0.72" stop-color="#168EFF" />
      <stop offset="1" stop-color="#00D9E9" />
    </linearGradient>

    <linearGradient id="left-code-gradient" x1="165" y1="166" x2="236" y2="258" gradientUnits="userSpaceOnUse">
      <stop stop-color="#A51EFF" />
      <stop offset="1" stop-color="#653BFF" />
    </linearGradient>

    <linearGradient id="right-code-gradient" x1="276" y1="166" x2="347" y2="258" gradientUnits="userSpaceOnUse">
      <stop stop-color="#158DFF" />
      <stop offset="1" stop-color="#00D8E9" />
    </linearGradient>

    <linearGradient id="bolt-gradient" x1="270" y1="111" x2="252" y2="365" gradientUnits="userSpaceOnUse">
      <stop stop-color="#6840FF" />
      <stop offset="0.48" stop-color="#257BFF" />
      <stop offset="1" stop-color="#00CBEF" />
    </linearGradient>
  </defs>

  <!-- Locator body. The inner path is subtracted to keep the logo transparent. -->
  <path
    fill="url(#locator-gradient)"
    fill-rule="evenodd"
    clip-rule="evenodd"
    d="M256 52C345.47 52 418 124.53 418 214C418 267.55 391.98 316.24 354.04 348.02L256 468L157.96 348.02C120.02 316.24 94 267.55 94 214C94 124.53 166.53 52 256 52ZM256 88C186.41 88 130 144.41 130 214C130 258.2 152.76 297.08 187.2 319.57L256 403.8L324.8 319.57C359.24 297.08 382 258.2 382 214C382 144.41 325.59 88 256 88Z"
  />

  <!-- Cardinal locator ticks. -->
  <rect x="238" y="20" width="36" height="84" rx="4" fill="url(#locator-gradient)" />
  <rect x="62" y="196" width="84" height="36" rx="4" fill="url(#locator-gradient)" />
  <rect x="366" y="196" width="84" height="36" rx="4" fill="url(#locator-gradient)" />

  <!-- Source-code angle brackets. -->
  <path
    d="M213.5 160L158 211.5L213.5 263L238 236.5L211 211.5L238 186.5L213.5 160Z"
    fill="url(#left-code-gradient)"
  />
  <path
    d="M298.5 160L354 211.5L298.5 263L274 236.5L301 211.5L274 186.5L298.5 160Z"
    fill="url(#right-code-gradient)"
  />

  <!-- Central patch/lightning seam. -->
  <path
    d="M283 108L232 212L266 253L238 369L302 237L267 198L283 108Z"
    fill="url(#bolt-gradient)"
  />
</svg>
</g><text x="94" y="48" font-size="24" font-weight="600" fill="#edf0fa">Scene / Active content</text><text x="94" y="81" font-size="16" font-weight="400" fill="#b2adc9">Pill · Capturing · Planner · Execution</text></g><g transform="translate(150 500) skewY(-7)"><g filter="url(#shadow)"><rect x="0" y="0" width="610" height="109" rx="40" fill="url(#slab)" stroke="url(#rim)"/></g><g transform="translate(26 28)"><svg
  xmlns="http://www.w3.org/2000/svg"
  width="40"
  height="40"
  viewBox="0 0 512 512"
  fill="none"
  role="img"
  aria-labelledby="spotpatch-title spotpatch-description"
>
  <title id="spotpatch-title">SpotPatch logo mark</title>
  <desc id="spotpatch-description">
    A gradient source-code locator containing angle brackets and a lightning bolt.
  </desc>

  <defs>
    <linearGradient id="locator-gradient" x1="76" y1="92" x2="436" y2="374" gradientUnits="userSpaceOnUse">
      <stop offset="0" stop-color="#B61CFF" />
      <stop offset="0.38" stop-color="#6D35FF" />
      <stop offset="0.72" stop-color="#168EFF" />
      <stop offset="1" stop-color="#00D9E9" />
    </linearGradient>

    <linearGradient id="left-code-gradient" x1="165" y1="166" x2="236" y2="258" gradientUnits="userSpaceOnUse">
      <stop stop-color="#A51EFF" />
      <stop offset="1" stop-color="#653BFF" />
    </linearGradient>

    <linearGradient id="right-code-gradient" x1="276" y1="166" x2="347" y2="258" gradientUnits="userSpaceOnUse">
      <stop stop-color="#158DFF" />
      <stop offset="1" stop-color="#00D8E9" />
    </linearGradient>

    <linearGradient id="bolt-gradient" x1="270" y1="111" x2="252" y2="365" gradientUnits="userSpaceOnUse">
      <stop stop-color="#6840FF" />
      <stop offset="0.48" stop-color="#257BFF" />
      <stop offset="1" stop-color="#00CBEF" />
    </linearGradient>
  </defs>

  <!-- Locator body. The inner path is subtracted to keep the logo transparent. -->
  <path
    fill="url(#locator-gradient)"
    fill-rule="evenodd"
    clip-rule="evenodd"
    d="M256 52C345.47 52 418 124.53 418 214C418 267.55 391.98 316.24 354.04 348.02L256 468L157.96 348.02C120.02 316.24 94 267.55 94 214C94 124.53 166.53 52 256 52ZM256 88C186.41 88 130 144.41 130 214C130 258.2 152.76 297.08 187.2 319.57L256 403.8L324.8 319.57C359.24 297.08 382 258.2 382 214C382 144.41 325.59 88 256 88Z"
  />

  <!-- Cardinal locator ticks. -->
  <rect x="238" y="20" width="36" height="84" rx="4" fill="url(#locator-gradient)" />
  <rect x="62" y="196" width="84" height="36" rx="4" fill="url(#locator-gradient)" />
  <rect x="366" y="196" width="84" height="36" rx="4" fill="url(#locator-gradient)" />

  <!-- Source-code angle brackets. -->
  <path
    d="M213.5 160L158 211.5L213.5 263L238 236.5L211 211.5L238 186.5L213.5 160Z"
    fill="url(#left-code-gradient)"
  />
  <path
    d="M298.5 160L354 211.5L298.5 263L274 236.5L301 211.5L274 186.5L298.5 160Z"
    fill="url(#right-code-gradient)"
  />

  <!-- Central patch/lightning seam. -->
  <path
    d="M283 108L232 212L266 253L238 369L302 237L267 198L283 108Z"
    fill="url(#bolt-gradient)"
  />
</svg>
</g><text x="94" y="48" font-size="24" font-weight="600" fill="#edf0fa">Chrome / Visual treatment</text><text x="94" y="81" font-size="16" font-weight="400" fill="#b2adc9">Fine borders / Subtle brand glow / State feedback</text></g><g transform="translate(150 660) skewY(-7)"><g filter="url(#shadow)"><rect x="0" y="0" width="610" height="109" rx="40" fill="url(#slab)" stroke="url(#rim)"/></g><g transform="translate(26 28)"><svg
  xmlns="http://www.w3.org/2000/svg"
  width="40"
  height="40"
  viewBox="0 0 512 512"
  fill="none"
  role="img"
  aria-labelledby="spotpatch-title spotpatch-description"
>
  <title id="spotpatch-title">SpotPatch logo mark</title>
  <desc id="spotpatch-description">
    A gradient source-code locator containing angle brackets and a lightning bolt.
  </desc>

  <defs>
    <linearGradient id="locator-gradient" x1="76" y1="92" x2="436" y2="374" gradientUnits="userSpaceOnUse">
      <stop offset="0" stop-color="#B61CFF" />
      <stop offset="0.38" stop-color="#6D35FF" />
      <stop offset="0.72" stop-color="#168EFF" />
      <stop offset="1" stop-color="#00D9E9" />
    </linearGradient>

    <linearGradient id="left-code-gradient" x1="165" y1="166" x2="236" y2="258" gradientUnits="userSpaceOnUse">
      <stop stop-color="#A51EFF" />
      <stop offset="1" stop-color="#653BFF" />
    </linearGradient>

    <linearGradient id="right-code-gradient" x1="276" y1="166" x2="347" y2="258" gradientUnits="userSpaceOnUse">
      <stop stop-color="#158DFF" />
      <stop offset="1" stop-color="#00D8E9" />
    </linearGradient>

    <linearGradient id="bolt-gradient" x1="270" y1="111" x2="252" y2="365" gradientUnits="userSpaceOnUse">
      <stop stop-color="#6840FF" />
      <stop offset="0.48" stop-color="#257BFF" />
      <stop offset="1" stop-color="#00CBEF" />
    </linearGradient>
  </defs>

  <!-- Locator body. The inner path is subtracted to keep the logo transparent. -->
  <path
    fill="url(#locator-gradient)"
    fill-rule="evenodd"
    clip-rule="evenodd"
    d="M256 52C345.47 52 418 124.53 418 214C418 267.55 391.98 316.24 354.04 348.02L256 468L157.96 348.02C120.02 316.24 94 267.55 94 214C94 124.53 166.53 52 256 52ZM256 88C186.41 88 130 144.41 130 214C130 258.2 152.76 297.08 187.2 319.57L256 403.8L324.8 319.57C359.24 297.08 382 258.2 382 214C382 144.41 325.59 88 256 88Z"
  />

  <!-- Cardinal locator ticks. -->
  <rect x="238" y="20" width="36" height="84" rx="4" fill="url(#locator-gradient)" />
  <rect x="62" y="196" width="84" height="36" rx="4" fill="url(#locator-gradient)" />
  <rect x="366" y="196" width="84" height="36" rx="4" fill="url(#locator-gradient)" />

  <!-- Source-code angle brackets. -->
  <path
    d="M213.5 160L158 211.5L213.5 263L238 236.5L211 211.5L238 186.5L213.5 160Z"
    fill="url(#left-code-gradient)"
  />
  <path
    d="M298.5 160L354 211.5L298.5 263L274 236.5L301 211.5L274 186.5L298.5 160Z"
    fill="url(#right-code-gradient)"
  />

  <!-- Central patch/lightning seam. -->
  <path
    d="M283 108L232 212L266 253L238 369L302 237L267 198L283 108Z"
    fill="url(#bolt-gradient)"
  />
</svg>
</g><text x="94" y="48" font-size="24" font-weight="600" fill="#edf0fa">Surface / Persistent shell</text><text x="94" y="81" font-size="16" font-weight="400" fill="#b2adc9">Fixed position / Geometry morph / Shared anchor</text></g><text x="930" y="313" font-size="21" font-weight="600" fill="#edf0fa">Event-driven states</text><text x="930" y="353" font-size="15" font-weight="400" fill="#9ea7bd">Real Runtime / Agent / Handoff events</text><text x="930" y="476" font-size="21" font-weight="600" fill="#edf0fa">Position control</text><text x="930" y="516" font-size="15" font-weight="400" fill="#9ea7bd">Drag / Snap / Viewport bounds / Session restore</text><text x="930" y="639" font-size="21" font-weight="600" fill="#edf0fa">Progressive enhancement</text><text x="930" y="679" font-size="15" font-weight="400" fill="#9ea7bd">Interruptible motion / Instant reduced-motion states</text><text x="64" y="929" font-size="14" font-weight="400" fill="#929db2">Structure study / Mutually exclusive scenes / Animation never decides completion or invents progress.</text></g></svg>